<?xml version="1.0" encoding="UTF-8"?>
<svg xmlns="http://www.w3.org/2000/svg" width="136" height="34" viewBox="0 0 136 34" fill="none">
  <g clip-path="url(#clip0_2741_4247)">
    <path d="M49.6282 24.53C49.6282 25.2163 49.9654 25.478 50.5926 25.478H50.7376C51.3648 25.478 51.702 25.2177 51.702 24.53V8.42412C51.702 7.73789 51.3648 7.4762 50.7376 7.4762H50.5926C49.9654 7.4762 49.6282 7.73644 49.6282 8.42412V24.53Z" fill="black"></path>
    <path d="M85.3428 24.53C85.3428 25.2163 85.68 25.478 86.3072 25.478H86.4522C87.0794 25.478 87.4166 25.2177 87.4166 24.53V8.42412C87.4166 7.73789 87.0794 7.4762 86.4522 7.4762H86.3072C85.68 7.4762 85.3428 7.73644 85.3428 8.42412V24.53Z" fill="black"></path>
    <path d="M76.3056 11.2184H69.871C65.6049 11.2184 64.207 13.9182 64.207 16.3825V24.53C64.207 25.2162 64.5443 25.4779 65.1715 25.4779H65.3164C65.9436 25.4779 66.2809 25.2176 66.2809 24.53V16.3825C66.2809 14.1566 67.7512 12.9717 69.9198 12.9717H76.2582C78.4268 12.9717 79.8971 14.1566 79.8971 16.3825V16.7372H74.6681C71.6564 16.7372 69.9213 18.4194 69.9213 21.0712V21.1425C69.9213 23.7958 71.6564 25.4764 74.6681 25.4764H80.7654C81.5612 25.4764 81.971 25.145 81.971 24.2915V16.3811C81.971 13.9182 80.5731 11.2169 76.307 11.2169L76.3056 11.2184ZM79.8956 23.7245H74.7139C72.5927 23.7245 71.9907 22.3041 71.9907 21.1425V21.0712C71.9907 19.911 72.5927 18.4892 74.7139 18.4892H79.8956V23.7231V23.7245Z" fill="black"></path>
    <path d="M110.02 25.4783H116.117C116.913 25.4783 117.323 25.1468 117.323 24.2934V16.3829C117.323 13.92 115.925 11.2188 111.659 11.2188H106.983C106.525 11.2188 106.212 11.5502 106.212 12.0475V12.142C106.212 12.6392 106.526 12.9707 106.983 12.9707H111.61C113.779 12.9707 115.249 14.1556 115.249 16.3814V16.7362H110.02C107.008 16.7362 105.273 18.4183 105.273 21.0701V21.1414C105.273 23.7947 107.008 25.4754 110.02 25.4754V25.4783ZM107.346 21.0731C107.346 19.9129 107.948 18.491 110.069 18.491H115.251V23.7249H110.069C107.948 23.7249 107.346 22.3045 107.346 21.1428V21.0716V21.0731Z" fill="black"></path>
    <path d="M127.274 11.2188H121.9C121.104 11.2188 120.694 11.5502 120.694 12.4037V30.6889C120.694 31.3751 121.031 31.6368 121.659 31.6368H121.804C122.431 31.6368 122.768 31.3766 122.768 30.6889V25.4783H127.275C131.541 25.4783 132.914 22.7784 132.914 20.3141V16.3829C132.914 13.92 131.54 11.2188 127.275 11.2188H127.274ZM130.84 20.3141C130.84 22.54 129.37 23.7249 127.201 23.7249H122.766V12.9721H127.201C129.37 12.9721 130.84 14.157 130.84 16.3829V20.3141Z" fill="black"></path>
    <path d="M46.2542 24.2934V12.1667C46.2542 11.4804 45.9169 11.2188 45.2897 11.2188H45.1448C44.5176 11.2188 44.1803 11.479 44.1803 12.1667V23.7249H40.1554C37.9868 23.7249 36.5165 22.54 36.5165 20.3141V12.1667C36.5165 11.4804 36.1792 11.2188 35.552 11.2188H35.4071C34.7799 11.2188 34.4426 11.479 34.4426 12.1667V20.3141C34.4426 22.777 35.8168 25.4783 40.0814 25.4783H45.0457C45.8415 25.4783 46.2512 25.1468 46.2512 24.2934H46.2542Z" fill="black"></path>
    <path d="M97.0547 11.2188H96.3802C92.1142 11.2188 90.6926 13.9186 90.6926 16.3829V20.2909C90.6926 22.7537 92.0905 25.4783 96.3566 25.4783H101.225C101.683 25.4783 101.995 25.1468 101.995 24.6496V24.5551C101.995 24.0578 101.682 23.7264 101.225 23.7264H96.4054C94.2368 23.7264 92.7665 22.5415 92.7665 20.3156V19.1307H102.069C102.455 19.1307 102.744 18.8472 102.744 18.491V16.3829C102.744 13.92 101.322 11.2188 97.0562 11.2188H97.0547ZM100.67 17.3773H92.765V16.3829C92.765 14.157 94.1865 12.9721 96.3551 12.9721H97.0784C99.2469 12.9721 100.668 14.157 100.668 16.3829V17.3773H100.67Z" fill="black"></path>
    <path d="M54.7848 11.2185C54.3263 11.2185 54.0142 11.5499 54.0142 12.0472V12.1417C54.0142 12.6389 54.3278 12.9704 54.7848 12.9704H56.1339V22.0178C56.1339 24.4094 57.5081 25.4765 59.8216 25.4765H60.6411C61.0996 25.4765 61.4117 25.145 61.4117 24.6478V24.5533C61.4117 24.0561 61.0981 23.7246 60.6411 23.7246H60.1115C58.7861 23.7246 58.2077 23.1082 58.2077 21.996V12.9718H60.8822C61.3407 12.9718 61.6528 12.6403 61.6528 12.1431V12.0486C61.6528 11.5514 61.3392 11.2199 60.8822 11.2199H58.2077V8.42558C58.2077 7.73936 57.8705 7.47766 57.2433 7.47766H57.0983C56.4711 7.47766 56.1339 7.7379 56.1339 8.42558V11.2199H54.7848V11.2185Z" fill="black"></path>
  </g>
  <path d="M27.4336 10.6696H27.3712C23.4282 10.6696 19.6383 11.6847 16.1265 13.6208L15.8485 13.7736L15.5705 13.6208C12.0586 11.6847 8.26874 10.6696 4.3257 10.6696H4.26329C3.40092 10.6696 3 11.1922 3 11.7753C3 12.1433 3.15318 12.4829 3.61652 12.8509C6.02017 14.6039 8.23848 16.4475 10.1788 18.6609C10.7329 19.276 11.2265 19.8912 11.3494 20.044C12.6127 21.6423 13.7531 23.3632 14.7384 25.1162L14.8915 25.3936C15.1374 25.854 15.4778 26.0088 15.8466 26.0088C16.2153 26.0088 16.5558 25.8559 16.8016 25.3936L16.9548 25.1162C17.9401 23.3632 19.0804 21.6423 20.3437 20.044C20.4666 19.8912 20.9602 19.276 21.5143 18.6609C23.4547 16.4475 25.673 14.6039 28.0766 12.8509C28.5381 12.4829 28.6931 12.1433 28.6931 11.7753C28.6931 11.1904 28.2922 10.6696 27.4299 10.6696L27.4336 10.6696ZM6.69909 12.7603C8.45596 13.0056 11.3513 13.683 13.8779 15.0662C13.0155 15.6512 12.2137 16.2644 11.444 16.9419C9.47151 14.8209 7.93211 13.5906 6.69909 12.7603V12.7603ZM15.8504 22.967C14.8953 21.246 13.9403 19.9535 12.7394 18.5099C13.7569 17.557 15.2962 16.4814 15.8504 16.1437C16.4045 16.4814 17.9457 17.557 18.9613 18.5099C17.7604 19.9553 16.8054 21.246 15.8504 22.967ZM20.2567 16.9419C19.487 16.2663 18.6852 15.6512 17.8228 15.0662C20.3494 13.683 23.2447 13.0056 25.0016 12.7603C23.7686 13.5906 22.2292 14.8209 20.2567 16.9419Z" fill="#01E88F"></path>
  <defs>
    <clipPath id="clip0_2741_4247">
      <rect width="98.5543" height="28.761" fill="white" transform="translate(34.4456 3)"></rect>
    </clipPath>
  </defs>
</svg>
